<svg width="152" height="74" viewBox="0 0 152 74" fill="none" xmlns="http://www.w3.org/2000/svg">
<path d="M18.5704 28.2656V34.5932H0.00184631V0.453932H7.10211V28.2656H18.5704ZM37.7268 35.0472C34.5437 35.0472 31.6073 34.2642 28.9238 32.7044C26.2372 31.1415 24.1141 29.0151 22.5515 26.3311C20.9889 23.644 20.2061 20.7102 20.2061 17.5236C20.2061 14.3369 20.9889 11.4031 22.5515 8.7161C24.1141 6.03211 26.2372 3.90564 28.9238 2.34277C31.6073 0.782956 34.5437 0 37.7268 0C40.9129 0 43.8493 0.782956 46.5328 2.34277C49.2194 3.90564 51.3425 6.03211 52.9051 8.7161C54.4677 11.4031 55.2475 14.3369 55.2475 17.5236C55.2475 20.7102 54.4677 23.644 52.9051 26.3311C51.3425 29.0151 49.2194 31.1415 46.5328 32.7044C43.8493 34.2642 40.9129 35.0472 37.7268 35.0472ZM37.7268 28.0828C39.7006 28.0828 41.4886 27.6198 43.0969 26.6936C44.7052 25.7705 45.9724 24.5032 46.8983 22.8946C47.8243 21.286 48.2873 19.4947 48.2873 17.5236C48.2873 15.5525 47.8243 13.7611 46.8983 12.1526C45.9724 10.544 44.7052 9.27666 43.0969 8.35356C41.4886 7.42742 39.7006 6.96435 37.7268 6.96435C35.756 6.96435 33.965 7.42742 32.3597 8.35356C30.7514 9.27666 29.4843 10.544 28.5583 12.1526C27.6323 13.7611 27.1693 15.5525 27.1693 17.5236C27.1693 19.4947 27.6323 21.286 28.5583 22.8946C29.4843 24.5032 30.7514 25.7705 32.3597 26.6936C33.965 27.6198 35.756 28.0828 37.7268 28.0828ZM77.4103 35.0472C74.2242 35.0472 71.2909 34.2642 68.6043 32.7044C65.9207 31.1415 63.7976 29.0151 62.235 26.3311C60.6724 23.644 59.8896 20.7102 59.8896 17.5236C59.8896 14.3369 60.6724 11.4031 62.235 8.7161C63.7976 6.03211 65.9207 3.90564 68.6043 2.34277C71.2909 0.782956 74.2242 0 77.4103 0C80.0817 0 82.6068 0.575792 84.9888 1.73042C87.3708 2.88201 89.3476 4.46011 90.9255 6.46472L85.5097 10.6963C84.5715 9.51429 83.3957 8.59424 81.9854 7.94228C80.5721 7.29032 79.0491 6.96435 77.4103 6.96435C75.4395 6.96435 73.6485 7.42742 72.0402 8.35356C70.4319 9.27666 69.1678 10.544 68.2418 12.1526C67.3158 13.7611 66.8528 15.5525 66.8528 17.5236C66.8528 19.4947 67.3158 21.286 68.2418 22.8946C69.1678 24.5032 70.4319 25.7705 72.0402 26.6936C73.6485 27.6198 75.4395 28.0828 77.4103 28.0828C79.0186 28.0828 80.5355 27.7477 81.9611 27.0805C83.3866 26.4133 84.5715 25.5024 85.5097 24.3508L90.9255 28.5825C89.3172 30.5871 87.3251 32.1652 84.9431 33.3168C82.5611 34.4714 80.0512 35.0472 77.4103 35.0472ZM109.403 35.0472C106.792 35.0472 104.419 34.5475 102.281 33.5452C100.143 32.5429 98.4583 31.172 97.2277 29.4263C96.0002 27.6807 95.3849 25.7461 95.3849 23.6227V0.453932H102.485V22.3036C102.485 23.4856 102.79 24.5702 103.396 25.5573C104.002 26.5443 104.837 27.3182 105.9 27.8787C106.96 28.4393 108.129 28.7196 109.403 28.7196C110.706 28.7196 111.891 28.4393 112.951 27.8787C114.014 27.3182 114.855 26.5443 115.476 25.5573C116.101 24.5702 116.412 23.4856 116.412 22.3036V0.453932H123.463V23.6227C123.463 25.7461 122.851 27.6807 121.62 29.4263C120.393 31.172 118.708 32.5429 116.57 33.5452C114.432 34.5475 112.04 35.0472 109.403 35.0472ZM140.439 35.0472C137.618 35.0472 135.078 34.3495 132.817 32.9542C130.557 31.5589 128.879 29.7523 127.788 27.5375L133.567 23.9426C134.173 25.3379 135.084 26.4438 136.299 27.2633C137.511 28.0828 138.906 28.4941 140.484 28.4941C141.91 28.4941 143.04 28.1803 143.874 27.5588C144.709 26.9373 145.126 26.0813 145.126 24.9876C145.126 24.1376 144.852 23.4186 144.307 22.8276C143.762 22.2335 143.086 21.7491 142.281 21.3683C141.477 20.9905 140.362 20.5427 138.937 20.0278C136.905 19.2692 135.245 18.5472 133.954 17.8648C132.665 17.1824 131.556 16.1892 130.633 14.8823C129.707 13.5783 129.244 11.9088 129.244 9.87682C129.244 7.7534 129.744 5.94681 130.746 4.46011C131.748 2.9734 133.058 1.85838 134.682 1.11503C136.305 0.371676 138.041 0 139.893 0C141.925 0 143.844 0.432606 145.65 1.29782C147.453 2.16303 148.98 3.32375 150.222 4.77999L145.535 9.1487C143.807 7.1776 141.925 6.19053 139.893 6.19053C138.8 6.19053 137.907 6.46472 137.207 7.01004C136.509 7.55537 136.162 8.35965 136.162 9.42289C136.162 10.2119 136.412 10.8852 136.911 11.4488C137.414 12.0094 138.05 12.4725 138.824 12.835C139.598 13.2006 140.667 13.624 142.032 14.1115C144.124 14.867 145.833 15.6043 147.152 16.3172C148.471 17.0301 149.61 18.0933 150.563 19.5038C151.52 20.9144 151.998 22.7575 151.998 25.0333C151.998 27.0653 151.483 28.8414 150.451 30.3586C149.418 31.8757 148.023 33.0365 146.263 33.8408C144.505 34.645 142.562 35.0472 140.439 35.0472Z" fill="white"/>
<path d="M38.5644 64.5893L37.9979 64.9945C37.6963 64.4126 37.3217 64.0226 36.8739 63.8246C36.4231 63.6266 35.89 63.523 35.2747 63.5108C34.8605 63.5108 34.4645 63.5687 34.0837 63.6845C33.703 63.7972 33.3527 64.0318 33.0298 64.3852C32.71 64.7386 32.5486 65.1864 32.5486 65.7287C32.5486 65.9998 32.6003 66.2375 32.7039 66.4446C32.8044 66.6548 32.9263 66.8224 33.0694 66.9534C33.2095 67.0844 33.4167 67.2063 33.6847 67.319C33.9558 67.4347 34.1995 67.52 34.4188 67.5779C34.6381 67.6358 34.9305 67.7059 35.2991 67.7881C36.42 68.0471 37.1876 68.303 37.5989 68.5528C38.4213 69.0433 38.8325 69.8324 38.8325 70.9261C38.8325 71.5079 38.7198 72.0106 38.4913 72.431C38.2659 72.8515 37.9674 73.1683 37.5989 73.3816C37.2303 73.5948 36.8556 73.7502 36.4749 73.8446C36.0941 73.936 35.692 73.9848 35.2747 73.9848C34.5102 73.9848 33.7883 73.7837 33.0999 73.3816C32.4145 72.9825 31.9089 72.3914 31.586 71.6115L32.2013 71.2368C32.4602 71.8613 32.8836 72.3488 33.4806 72.6961C34.0746 73.0464 34.6747 73.2201 35.2747 73.2201C35.5885 73.2201 35.8992 73.1866 36.1977 73.1256C36.4992 73.0647 36.8038 72.955 37.1115 72.7966C37.4191 72.6412 37.6659 72.4036 37.8547 72.0807C38.0436 71.7578 38.138 71.3678 38.138 70.9078C38.138 70.6488 38.1045 70.4112 38.0344 70.1979C37.9674 69.9847 37.8547 69.8019 37.6963 69.6465C37.5379 69.4881 37.3826 69.3601 37.2333 69.2535C37.0841 69.1499 36.8709 69.0524 36.5967 68.958C36.3226 68.8636 36.1002 68.7935 35.9296 68.7478C35.756 68.7021 35.5093 68.6412 35.1834 68.5681C34.8239 68.4858 34.5467 68.4188 34.3548 68.3639C34.1629 68.3121 33.9101 68.2329 33.6025 68.1233C33.2948 68.0136 33.0572 67.8978 32.8897 67.7729C32.7222 67.648 32.5486 67.4926 32.3688 67.3037C32.1891 67.1179 32.0581 66.8925 31.9759 66.6335C31.8967 66.3715 31.8541 66.0821 31.8541 65.7592C31.8449 65.2077 31.9454 64.7264 32.1556 64.3151C32.3658 63.9038 32.6491 63.59 33.0055 63.3707C33.3618 63.1513 33.7274 62.9899 34.1051 62.8863C34.4797 62.7827 34.8696 62.7309 35.2747 62.7309C36.018 62.7309 36.6515 62.8558 37.1694 63.1056C37.6872 63.3555 38.1502 63.849 38.5644 64.5893ZM44.2422 63.6662H40.9921V69.2718H44.2422C44.6534 69.2718 45.022 69.1652 45.3418 68.958C45.6617 68.7508 45.9084 68.4827 46.0729 68.1537C46.2404 67.8277 46.3622 67.4652 46.4414 67.0692C46.5176 66.6762 46.5176 66.2771 46.4414 65.8749C46.3622 65.4758 46.2404 65.1102 46.0729 64.7843C45.9084 64.4552 45.6617 64.1872 45.3418 63.98C45.022 63.7728 44.6534 63.6662 44.2422 63.6662ZM44.2422 70.0365H40.9921V73.8111H40.2976V62.8863H44.2422C44.7144 62.8863 45.1408 62.9899 45.5215 63.1909C45.9023 63.3951 46.2099 63.6662 46.4475 64.0044C46.6821 64.3425 46.8618 64.7233 46.9867 65.1499C47.1116 65.5764 47.1725 66.0151 47.1725 66.4629C47.1725 66.9077 47.1116 67.3464 46.9867 67.7729C46.8618 68.1994 46.6821 68.5802 46.4475 68.9184C46.2099 69.2566 45.9023 69.5277 45.5215 69.7318C45.1408 69.9329 44.7144 70.0365 44.2422 70.0365ZM56.606 73.8111H55.8597L54.8698 71.1271H49.4996L48.5219 73.8111H47.7756L51.8116 62.8863H52.57L56.606 73.8111ZM49.7677 70.3472H54.6017L52.1862 63.6997L49.7677 70.3472ZM61.8482 63.7302V68.0837H67.0264V68.8818H61.8482V73.8294H61.1537V62.8863H67.2062V63.7302H61.8482ZM73.1581 62.7157C74.5958 62.7157 75.7137 63.2641 76.5117 64.3608C77.3098 65.4606 77.7027 66.795 77.6936 68.3639C77.6936 69.0951 77.5961 69.7897 77.3981 70.4569C77.2001 71.121 76.9199 71.7212 76.5574 72.2513C76.1919 72.7814 75.7167 73.2049 75.1288 73.5247C74.544 73.8416 73.8861 74 73.1581 74C72.4301 74 71.7721 73.8416 71.1842 73.5247C70.5994 73.2049 70.1212 72.7783 69.7526 72.2452C69.3841 71.709 69.1038 71.1058 68.9089 70.4417C68.717 69.7745 68.6225 69.0738 68.6225 68.3335C68.6225 67.3251 68.784 66.405 69.1099 65.5733C69.4358 64.7386 69.9506 64.0562 70.6512 63.52C71.3548 62.9838 72.1894 62.7157 73.1581 62.7157ZM73.1581 63.4956C71.9244 63.4956 70.971 63.9617 70.2979 64.8939C69.6247 65.8231 69.2927 66.9778 69.3018 68.3487C69.3109 69.6831 69.6521 70.8255 70.3314 71.7821C71.0076 72.7418 71.9488 73.2201 73.1581 73.2201C73.9805 73.2201 74.6902 72.9794 75.2903 72.5011C75.8903 72.0228 76.329 71.4257 76.6092 70.7067C76.8864 69.9877 77.0265 69.2017 77.0265 68.3487C77.0265 66.996 76.6884 65.8506 76.0091 64.9092C75.3329 63.9678 74.3826 63.4956 73.1581 63.4956ZM83.347 69.6282L86.521 73.8111H85.6102L82.5002 69.677H80.0451V73.8111H79.3506V62.8863H83.3104C84.2334 62.8863 84.9553 63.2245 85.4762 63.8947C85.994 64.5649 86.256 65.3631 86.2651 66.2893C86.2742 67.2367 86.0245 68.0288 85.5127 68.6686C85.004 69.3084 84.2821 69.6282 83.347 69.6282ZM80.0451 63.6662V68.8818H83.2312C83.9867 68.8818 84.5502 68.6473 84.9279 68.1781C85.3056 67.7089 85.4975 67.0753 85.5066 66.274C85.5158 65.5764 85.3269 64.9671 84.9431 64.4492C84.5563 63.9282 84.011 63.6662 83.3104 63.6662H80.0451ZM99.0645 73.8111V64.1049L95.6194 70.5026H95.3879L91.9185 64.1049V73.8111H91.227V62.8863H92.0495L95.4915 69.2535L98.8969 62.8863H99.7468V73.8111H99.0645ZM102.406 63.6845V67.9283H107.676V68.693H102.406V73.0007H108.087V73.8111H101.724V62.8863H107.931V63.6845H102.406ZM109.899 62.8863H110.195L116.247 71.9223V62.8863H116.926V73.8111H116.658L110.591 64.7904V73.8111H109.899V62.8863Z" fill="white"/>
<path fill-rule="evenodd" clip-rule="evenodd" d="M11.3635 46.7032H138.145V50.0117H11.3635V46.7032Z" fill="white"/>
</svg>
