<svg width="37" height="36" viewBox="0 0 37 36" fill="none" xmlns="http://www.w3.org/2000/svg">
<path fill-rule="evenodd" clip-rule="evenodd" d="M18.4 0C28.3 0 36.4 8.1 36.4 18C36.4 27.9 28.3 36 18.4 36C8.50002 36 0.400024 27.9 0.400024 18C0.400024 8.1 8.40002 0 18.4 0Z" fill="#64A9DC"/>
<path d="M25.7 10.4998L9.3 16.7997C8.2 17.1997 8.2 17.8998 9.1 18.0998L13.2 19.3998L14.8 24.1998C15 24.6998 14.9 24.8998 15.4 24.8998C15.8 24.8998 16 24.6998 16.2 24.4998C16.4 24.3998 17.2 23.4998 18.2 22.4998L22.4 25.5998C23.2 25.9998 23.7 25.7998 23.9 24.8998L26.7 11.7997C27.2 10.6997 26.4 10.1998 25.7 10.4998ZM13.9 19.0998L23.1 13.2997C23.6 12.9997 24 13.1998 23.6 13.4998L15.7 20.5998L15.4 23.8998L13.9 19.0998Z" fill="white"/>
</svg>
