<svg width="17" height="17" viewBox="0 0 17 17" fill="none" xmlns="http://www.w3.org/2000/svg">
<path fill-rule="evenodd" clip-rule="evenodd" d="M8.02902 1.23529C6.42089 1.23529 5.11725 2.53894 5.11725 4.14706C5.11725 5.75518 6.42089 7.05882 8.02902 7.05882C9.63714 7.05882 10.9408 5.75518 10.9408 4.14706C10.9408 2.53894 9.63714 1.23529 8.02902 1.23529ZM3.88196 4.14706C3.88196 1.8567 5.73866 0 8.02902 0C10.3194 0 12.1761 1.8567 12.1761 4.14706C12.1761 6.43742 10.3194 8.29412 8.02902 8.29412C5.73866 8.29412 3.88196 6.43742 3.88196 4.14706Z" fill="#4F4F4F"/>
<path fill-rule="evenodd" clip-rule="evenodd" d="M1.69613 12.2838C2.97856 10.9137 5.06424 9.88235 8.26471 9.88235C11.4652 9.88235 13.5509 10.9137 14.8333 12.2838C16.0996 13.6367 16.5294 15.2639 16.5294 16.3824C16.5294 16.7235 16.2529 17 15.9118 17H0.617647C0.27653 17 0 16.7235 0 16.3824C0 15.2639 0.429846 13.6367 1.69613 12.2838ZM1.28782 15.7647H15.2416C15.1131 14.9719 14.7329 13.9843 13.9314 13.128C12.9197 12.0471 11.1819 11.1176 8.26471 11.1176C5.34752 11.1176 3.60968 12.0471 2.59799 13.128C1.79647 13.9843 1.41635 14.9719 1.28782 15.7647Z" fill="#4F4F4F"/>
</svg>
