<svg width="20" height="36" viewBox="0 0 20 36" fill="none" xmlns="http://www.w3.org/2000/svg">
<path d="M0.669487 34.5904C0.728053 33.8467 0.621986 32.9958 1.06878 32.3558C1.56099 31.7518 2.30003 31.373 2.69947 30.646C2.93052 30.3304 3.39446 29.5416 2.59082 29.7574C2.238 29.7858 1.42202 30.012 1.7154 29.3484C2.48153 29.3296 3.21383 29.0907 3.90255 28.7701C4.60112 28.7113 5.16136 29.3669 5.81982 29.6179C6.57043 30.0162 7.45853 29.7758 8.26612 29.7608C9.19244 29.6708 7.89578 29.2642 7.64016 29.0545C6.94886 28.7134 6.28785 28.3207 5.66009 27.8753C5.08197 27.5333 4.48925 27.2221 3.87241 26.963C3.25006 26.5536 2.56694 26.2468 1.83175 26.1196C1.48612 25.8682 0.161966 26.374 0.829503 25.6165C1.40911 25.1572 2.11876 24.8814 2.79173 24.5901C3.49359 24.3101 4.20758 24.3783 4.84207 24.7724C5.40288 25.0736 6.6248 24.9542 5.84015 24.173C5.5629 23.9213 5.0352 23.2145 5.71675 23.1646C6.18402 23.7316 6.53908 24.3911 7.11524 24.8664C7.59226 25.2643 7.49204 25.811 7.78807 26.3951C8.00954 27.0203 8.75637 27.2119 9.27819 27.5265C10.103 27.9621 10.9573 28.3637 11.8745 28.5619C12.4298 28.9203 12.0026 27.6978 12.0469 27.3964C11.8761 26.4667 11.3431 25.6472 10.8599 24.8475C10.3168 23.9384 9.662 23.0066 9.68919 21.8977C9.6573 20.6779 10.1955 19.4658 11.1093 18.6613C11.6641 18.068 12.3483 17.5641 12.6891 16.8086C13.0639 16.127 12.7663 15.3375 12.5975 14.6408C12.3089 13.6692 11.6975 12.8218 10.9897 12.1117C10.3662 11.3059 10.8605 13.0267 10.4621 12.8871C10.5706 12.3134 10.4188 11.72 10.0368 11.3127C9.93906 11.9096 9.82096 12.5484 9.91496 13.1659C9.98274 13.4145 10.1208 14.2868 9.85745 13.6023C9.69624 13.1016 9.61267 13.8364 9.60244 14.0002C9.60707 14.283 9.81462 15.0755 9.34105 14.5447C9.22099 14.3101 8.90165 14.0173 9.16833 14.4681C9.4181 14.7069 9.86387 15.0781 9.24134 14.8062C8.671 14.269 9.0809 15.2611 8.95454 15.2701C8.83322 14.7307 8.74262 15.8836 8.58919 15.2258C8.58088 14.9845 8.25438 14.4175 8.41405 14.9989C8.641 15.3815 8.45573 15.4336 8.18792 15.504C7.63468 16.079 7.28222 14.5397 7.11327 14.7726C7.23165 15.0864 8.03684 16.0929 7.28569 15.4818C7.08886 15.2679 6.71439 14.4279 6.87764 15.2082C7.24363 16.1 5.83037 15.232 6.10691 14.6438C5.76507 13.8033 6.48702 12.9894 6.16739 12.1716C5.78676 11.6333 5.7807 13.3743 5.67108 12.3685C5.59413 11.1685 6.18192 10.0209 6.03258 8.82071C5.77597 8.83094 5.98777 10.087 5.64049 10.1764C5.57393 9.51889 5.85383 8.84702 5.80399 8.17009C5.84965 7.0139 5.92159 5.81485 6.46816 4.7709C6.9161 3.81189 6.8828 2.6847 7.48339 1.78604C7.79196 1.23442 7.84138 0.453291 8.60312 0.344138C9.16649 -0.0281062 10.0272 0.148816 10.689 0.280936C11.4123 0.635544 11.7416 1.43791 12.3486 1.92883C12.5353 2.56545 12.9719 3.05061 13.3282 3.59149C13.5611 4.35331 13.775 5.13269 13.8662 5.9255C13.6586 6.33574 13.2062 6.69135 13.7927 7.05141C14.2832 7.64975 15.1065 7.78729 15.6793 8.29022C16.318 8.72955 17.0122 9.0778 17.6684 9.4883C18.1375 9.82623 19.0521 9.97836 19.0713 10.6521C19.0702 11.3116 18.7067 11.8629 19.0942 12.4219C19.1816 13.0864 18.9172 13.852 19.4262 14.3867C19.7007 15.2262 20.2308 16.1302 19.8886 17.0301C19.4644 17.5495 19.1752 18.2127 18.5077 18.4816C17.8975 18.8208 17.4822 19.3865 17.4867 20.1017C17.2815 20.8044 16.9044 21.4761 16.8394 22.2138C16.9741 23.2384 17.0459 24.279 17.2853 25.2851C17.8005 26.5216 17.8346 27.8798 18.113 29.1756C18.1842 30.0204 18.3137 30.8641 18.3279 31.7114C18.4848 32.5227 17.7743 32.8422 17.1108 32.9529C16.3404 33.2082 15.5054 33.0862 14.7075 33.0924C13.7967 32.9899 12.8949 32.7798 12.0135 32.5347C11.0533 32.1801 10.0222 32.1106 9.03771 31.8442C8.00816 31.6527 6.90668 31.4482 5.89486 31.8212C5.19524 31.8863 4.49701 32.1594 4.00868 32.6711C3.55667 33.3731 2.95555 33.9804 2.60337 34.7492C2.50082 35.1691 2.11199 35.6592 1.65789 35.9952C1.2501 35.9952 1.18906 35.3017 0.669415 35.1563C0.66944 34.9676 0.669463 34.779 0.669487 34.5904ZM9.2078 13.5592C9.18981 12.8798 8.86972 13.2947 9.03708 13.7297C9.12108 14.2481 9.30909 13.8223 9.2078 13.5592ZM6.35376 7.56834C6.4978 7.1635 6.68963 6.07326 6.46457 5.97052C6.3546 6.52348 6.07169 7.29392 6.26737 7.73965L6.30694 7.67505L6.35376 7.56834Z" fill="#560D20"/>
</svg>
