<svg width="22" height="20" viewBox="0 0 22 20" fill="none" xmlns="http://www.w3.org/2000/svg">
<path d="M20.7683 8.77049H20.2449V5.6257C20.2449 4.33981 19.1981 3.29756 17.9167 3.29756H17.434L17.4385 2.12898C17.4385 1.26269 16.7346 0.558838 15.8683 0.558838H1.90853C0.866284 0.558838 0.0135357 1.39805 0 2.4403C0 2.44932 0 2.45835 0 2.46737V17.871C0 18.7373 0.703856 19.4411 1.57014 19.4411H17.9212C19.2071 19.4411 20.2494 18.3944 20.2494 17.113V13.9637H20.7728C21.4495 13.9637 22 13.4132 22 12.7364V9.99772C21.9955 9.32094 21.445 8.77049 20.7683 8.77049ZM1.90853 1.64169H15.8683C16.1345 1.64169 16.3556 1.85826 16.3556 2.12447L16.3511 3.29756H1.90853C1.45283 3.29756 1.08285 2.92758 1.08285 2.47188C1.08285 2.01618 1.45283 1.64169 1.90853 1.64169ZM19.162 17.1085C19.162 17.7943 18.6025 18.3538 17.9167 18.3538H1.56563C1.29943 18.3538 1.07834 18.1372 1.07834 17.8665V4.19091C1.33101 4.31273 1.61075 4.38041 1.90853 4.38041H17.9167C18.6025 4.38041 19.162 4.93989 19.162 5.6257V8.77049H15.4668C14.79 8.77049 14.2395 9.32094 14.2395 9.99772V12.7364C14.2395 13.4132 14.79 13.9637 15.4668 13.9637H19.162V17.1085ZM20.9126 12.7364C20.9126 12.8177 20.8495 12.8808 20.7683 12.8808H15.4713C15.3901 12.8808 15.3269 12.8177 15.3269 12.7364V9.99772C15.3269 9.92102 15.3901 9.85334 15.4713 9.85334H20.7683C20.845 9.85334 20.9126 9.91651 20.9126 9.99772V12.7364Z" fill="#560D20"/>
</svg>
