<svg width="36" height="36" viewBox="0 0 36 36" fill="none" xmlns="http://www.w3.org/2000/svg">
<path d="M18 36C27.9411 36 36 27.9411 36 18C36 8.05887 27.9411 0 18 0C8.05887 0 0 8.05887 0 18C0 27.9411 8.05887 36 18 36Z" fill="#25D366"/>
<path d="M25.9723 9.98116C23.8568 7.86334 21.044 6.69672 18.047 6.69531C11.8724 6.69531 6.84591 11.7207 6.84394 17.8978C6.84281 19.8727 7.35891 21.8001 8.33906 23.4983L6.75 29.3039L12.6886 27.7463C14.3252 28.6382 16.1674 29.1087 18.0425 29.1095H18.0472C24.2218 29.1095 29.2475 24.0833 29.25 17.9065C29.2514 14.9134 28.0868 12.0987 25.9723 9.98116ZM18.0472 27.2173H18.0436C16.3721 27.2167 14.7336 26.7678 13.3037 25.9196L12.9637 25.7177L9.43959 26.6421L10.3798 23.2064L10.1585 22.8531C9.22612 21.3709 8.73366 19.6578 8.73478 17.8978C8.73647 12.7641 12.9139 8.58728 18.0501 8.58728C20.5374 8.58784 22.8749 9.55788 24.6333 11.3182C26.3914 13.0783 27.3589 15.4174 27.3583 17.9057C27.3566 23.0402 23.1792 27.2173 18.0472 27.2173ZM23.1548 20.2437C22.8746 20.1033 21.4985 19.4269 21.2417 19.3327C20.9849 19.2393 20.799 19.1929 20.6123 19.4731C20.4255 19.7532 19.8892 20.384 19.7255 20.5708C19.5623 20.7575 19.3992 20.7812 19.1191 20.6408C18.839 20.5005 17.9373 20.2052 16.8688 19.2512C16.0363 18.5095 15.4744 17.5921 15.3112 17.3119C15.1481 17.0318 15.2938 16.8808 15.4342 16.741C15.5602 16.6156 15.7143 16.4142 15.8541 16.2505C15.9938 16.0868 16.0405 15.9701 16.1339 15.7836C16.2273 15.5969 16.1809 15.4335 16.1106 15.2934C16.0403 15.1531 15.4806 13.7752 15.2477 13.2147C15.0202 12.6688 14.7895 12.7428 14.618 12.7343C14.4543 12.7264 14.2678 12.7242 14.0813 12.7242C13.8949 12.7242 13.5914 12.7942 13.3349 13.0746C13.0787 13.3548 12.3553 14.0317 12.3553 15.4101C12.3553 16.7877 13.3582 18.1191 13.4983 18.3056C13.6384 18.4921 15.4721 21.32 18.2801 22.5325C18.9478 22.8205 19.4695 22.9929 19.8759 23.1223C20.5464 23.3358 21.1568 23.3051 21.6394 23.2331C22.1771 23.1529 23.2954 22.5561 23.5291 21.9022C23.7622 21.2486 23.7622 20.6883 23.6917 20.5713C23.6211 20.4541 23.4343 20.384 23.1548 20.2437Z" fill="white"/>
</svg>
