<svg width="44" height="40" viewBox="0 0 44 40" fill="none" xmlns="http://www.w3.org/2000/svg">
<path d="M43.5543 2.66177C43.1032 2.32026 42.4818 2.35145 42.0787 2.74696C41.6406 3.11585 38.4081 4.92836 35.5048 4.69866C33.5942 4.55263 31.8692 3.6361 30.3137 2.5743C28.7058 1.47676 27.3421 0.0810547 25.2618 0.0810547C24.0228 0.0810547 22.8895 0.56936 21.9989 1.4585C21.1074 0.56936 19.9741 0.0810547 18.7359 0.0810547C16.8328 0.0810547 15.425 1.33072 13.9692 2.38111C12.3795 3.52886 10.478 4.5473 8.4921 4.69942C5.59193 4.9276 2.35557 3.11509 1.93952 2.76674C1.53488 2.37046 0.902824 2.33015 0.453309 2.67166C0.00227271 3.01241 -0.131593 3.63154 0.139181 4.12821L0.219044 4.27805C1.66419 7.02534 3.27514 9.24325 5.01159 10.8808V22.9424C5.01159 32.3039 12.6275 39.919 22.0087 39.919C31.3702 39.919 38.9854 32.3032 38.9854 22.9424V10.8808C40.7218 9.24325 42.332 7.02534 43.7779 4.27805L43.8578 4.12821C44.1285 3.63154 44.0053 3.00328 43.5543 2.66177ZM31.7361 14.8466V22.8641C28.9987 20.7253 25.5623 19.5327 21.9989 19.5327C18.4354 19.5327 14.999 20.7245 12.2609 22.8603V14.8466C13.239 15.0588 14.2422 15.1691 15.2227 15.1691C17.2451 15.1691 18.8941 14.7165 19.7817 13.9232C20.626 13.3688 21.3797 12.5998 21.9989 11.6719C22.6172 12.599 23.371 13.3688 24.2152 13.9232C25.1029 14.7165 26.7518 15.1691 28.7743 15.1691C29.7539 15.1691 30.7579 15.0588 31.7361 14.8466Z" fill="white"/>
</svg>
