<svg width="36" height="36" viewBox="0 0 36 36" fill="none" xmlns="http://www.w3.org/2000/svg">
<path fill-rule="evenodd" clip-rule="evenodd" d="M18 0C27.9 0 36 8.1 36 18C36 27.9 27.9 36 18 36C8.1 36 0 27.9 0 18C0 8.1 8.1 0 18 0Z" fill="#597DA3"/>
<path fill-rule="evenodd" clip-rule="evenodd" d="M23.1 20.6996C23.1 19.8996 22.9 19.1996 22.4 18.7996C22 18.2996 21.4 17.9997 20.6 17.8997V17.7996C21.1 17.5996 21.5 17.2996 21.8 16.7996C22.1 16.2996 22.2 15.7996 22.2 15.2996C22.2 14.7996 22.1 14.3996 21.9 13.9996C21.7 13.5996 21.4 13.2996 20.9 13.0996C20.5 12.8996 20.1 12.6996 19.6 12.6996C19.1 12.5996 18.5 12.5996 17.6 12.5996H13.4V24.4996H18.2C19 24.4996 19.7 24.3996 20.2 24.2996C20.7 24.0996 21.2 23.8996 21.7 23.4996C22.1 23.1996 22.4 22.7997 22.6 22.3997C23 21.7997 23.1 21.2996 23.1 20.6996ZM19.3 15.7996C19.3 15.5996 19.3 15.3996 19.2 15.1996C19.1 14.9996 19 14.8996 18.7 14.7996C18.5 14.6996 18.3 14.6996 18 14.6996C17.7 14.6996 17.3 14.6996 16.8 14.6996H16.6V17.1996H17C17.5 17.1996 17.9 17.1996 18.1 17.1996C18.3 17.1996 18.5 17.0996 18.7 16.9996C18.9 16.8996 19.1 16.6996 19.2 16.4996C19.2 16.2996 19.3 16.0996 19.3 15.7996ZM20 20.5996C20 20.1996 19.9 19.8996 19.8 19.6996C19.6 19.4996 19.4 19.2996 19.1 19.1996C18.9 19.0996 18.7 19.0996 18.4 19.0996C18.1 19.0996 17.7 19.0996 17.1 19.0996H16.5V22.0996H16.7C17.5 22.0996 18 22.0996 18.3 22.0996C18.6 22.0996 18.9 21.9997 19.2 21.8997C19.5 21.7997 19.7 21.5997 19.8 21.3997C20 21.1997 20 20.8996 20 20.5996Z" fill="white"/>
</svg>
