<svg width="14" height="18" viewBox="0 0 14 18" fill="none" xmlns="http://www.w3.org/2000/svg">
<path fill-rule="evenodd" clip-rule="evenodd" d="M9.76041 4.94612C9.28251 3.88118 8.34011 2.76273 6.88283 1.56557C6.26556 1.05848 5.55588 0.537256 4.75 0C4.75 0.902181 4.60709 1.71933 4.3722 2.47462C3.901 3.98979 3.05964 5.25602 2.25936 6.46042C1.22004 8.0246 0.25 9.48449 0.25 11.25C0.25 14.9779 3.27208 18 7 18C10.7279 18 13.75 14.9779 13.75 11.25C13.75 10.5823 13.6451 9.92774 13.4582 9.29121C13.2183 8.47435 12.843 7.68721 12.3802 6.94026C12.2623 6.75004 12.1388 6.56244 12.0104 6.37761C12.0104 7.32661 11.5753 8.22683 10.9399 8.9893C10.7059 9.27012 10.4447 9.53227 10.1681 9.77128C9.7387 10.1424 9.27205 10.4578 8.81219 10.7007C8.74549 10.736 8.67894 10.7697 8.61267 10.8018C8.12626 11.0377 7.9024 10.5369 8.29122 10.1613C8.29368 10.159 8.29616 10.1566 8.29862 10.1542C8.7316 9.73517 9.09203 9.31427 9.37566 8.88939C9.92129 8.07194 10.1827 7.23974 10.1294 6.37761C10.1006 5.91005 9.97911 5.43369 9.76041 4.94612ZM11.4864 11.6031C10.8814 12.1042 10.2309 12.5177 9.59436 12.8264C9.14654 13.0435 8.50542 13.2137 7.78608 13.044C7.02496 12.8645 6.41494 12.3535 6.09358 11.6809C5.47843 10.3934 6.08144 9.16758 6.72806 8.543C7.95959 7.35347 7.97616 6.66188 7.80831 6.12956C7.64287 5.60492 7.18838 4.88828 6.22366 3.97895C5.65094 5.42402 4.86172 6.61057 4.21243 7.58675C4.18584 7.62674 4.15948 7.66636 4.13339 7.70563C3.01136 9.39427 2.5 10.2818 2.5 11.25C2.5 13.7352 4.51472 15.75 7 15.75C9.36644 15.75 11.3063 13.9233 11.4864 11.6031Z" fill="white"/>
</svg>
