<svg width="20" height="20" viewBox="0 0 20 20" fill="none" xmlns="http://www.w3.org/2000/svg">
<path d="M10 7.78489C9.85915 7.78489 9.72155 7.79866 9.58791 7.82393L7.00464 2.94228C6.83579 2.62323 6.44028 2.5014 6.12128 2.67029C5.80224 2.83909 5.68046 3.23461 5.8493 3.55365L8.43218 8.43469C8.04272 8.82419 7.81501 9.34393 7.78769 9.8875C7.77741 10.0923 7.79688 10.2979 7.83745 10.4794L5.62325 11.7404C5.30961 11.9191 5.20015 12.3182 5.3788 12.6318C5.49932 12.8435 5.72011 12.9621 5.94734 12.9621C6.05701 12.9621 6.16813 12.9344 6.27017 12.8763L8.48568 11.6146C8.88211 11.9866 9.4147 12.2152 9.99998 12.2152C11.2214 12.2152 12.2151 11.2214 12.2151 10.0001C12.2151 8.77861 11.2214 7.78489 10 7.78489ZM10 10.908C9.49819 10.908 9.09205 10.4985 9.09205 10.0001C9.09205 9.49317 9.50577 9.09208 10 9.09208C10.5006 9.09208 10.908 9.4994 10.908 10.0001C10.9079 10.5007 10.5006 10.908 10 10.908Z" fill="#560D20"/>
<path d="M10 0C4.47717 0 0 4.47717 0 10C0 15.5228 4.47717 20 10 20C15.5228 20 20 15.5228 20 10C20 4.47717 15.5228 0 10 0ZM16.1468 16.1468C14.6599 17.6336 12.7293 18.5155 10.6536 18.6687L10.6536 17.6589C10.6536 17.298 10.361 17.0053 10 17.0053C9.63913 17.0053 9.34645 17.298 9.34645 17.6589L9.34641 18.6687C7.27072 18.5154 5.34009 17.6336 3.85329 16.1468C2.36641 14.6599 1.48458 12.7293 1.33129 10.6536H2.34105C2.702 10.6536 2.99464 10.361 2.99464 10C2.99464 9.63904 2.702 9.34641 2.34105 9.34641H1.33129C1.48458 7.27068 2.36641 5.34009 3.85325 3.85325C5.34009 2.36641 7.27072 1.48453 9.34641 1.33124V2.341C9.34641 2.70196 9.63904 2.9946 10 2.9946C10.361 2.9946 10.6536 2.70196 10.6536 2.341V1.33129C12.7293 1.48453 14.6599 2.36641 16.1467 3.85325C17.6336 5.34009 18.5154 7.27068 18.6687 9.34641H17.6589C17.298 9.34641 17.0053 9.63904 17.0053 10C17.0053 10.361 17.298 10.6536 17.6589 10.6536H18.6687C18.5155 12.7293 17.6336 14.6599 16.1468 16.1468Z" fill="#560D20"/>
</svg>
