<?xml version="1.0" encoding="UTF-8" standalone="no"?>
<svg
   version="1.1"
   width="117.9496"
   height="57.4146"
   id="svg9"
   viewBox="0 0 117.9496 57.4146"
   sodipodi:docname="ad18bb4c4384d19dabf44b30a955cd67.cdr"
   xmlns:inkscape="http://www.inkscape.org/namespaces/inkscape"
   xmlns:sodipodi="http://sodipodi.sourceforge.net/DTD/sodipodi-0.dtd"
   xmlns="http://www.w3.org/2000/svg"
   xmlns:svg="http://www.w3.org/2000/svg">
  <defs
     id="defs13" />
  <sodipodi:namedview
     id="namedview11"
     pagecolor="#ffffff"
     bordercolor="#666666"
     borderopacity="1.0"
     inkscape:pageshadow="2"
     inkscape:pageopacity="0.0"
     inkscape:pagecheckerboard="0" />
  <g
     id="Layer1000"
     transform="translate(-154.569,-176.1956)">
    <path
       d="m 168.9772,198.1259 v 4.9087 H 154.569 v -26.4858 h 5.5091 v 21.5771 z m 14.8674,5.2619 c -2.4721,0 -4.7497,-0.6063 -6.8332,-1.8187 -2.0837,-1.2124 -3.7315,-2.8604 -4.9442,-4.9439 -1.2123,-2.0838 -1.8187,-4.3614 -1.8187,-6.8335 0,-2.4721 0.6064,-4.7497 1.8187,-6.8332 1.2127,-2.0837 2.8605,-3.7315 4.9442,-4.9442 2.0835,-1.2123 4.3611,-1.8187 6.8332,-1.8187 2.4721,0 4.7498,0.6064 6.8335,1.8187 2.0835,1.2127 3.7315,2.8605 4.9439,4.9442 1.2124,2.0835 1.8187,4.3611 1.8187,6.8332 0,2.4721 -0.6063,4.7497 -1.8187,6.8335 -1.2124,2.0835 -2.8604,3.7315 -4.9439,4.9439 -2.0837,1.2124 -4.3614,1.8187 -6.8335,1.8187 z m 0,-5.4031 c 1.5305,0 2.9194,-0.3592 4.1672,-1.0772 1.2479,-0.718 2.2306,-1.7008 2.9486,-2.9486 0.7181,-1.2478 1.0772,-2.6368 1.0772,-4.1672 0,-1.5301 -0.3591,-2.9194 -1.0772,-4.1669 -0.718,-1.2478 -1.7007,-2.2309 -2.9486,-2.9489 -1.2478,-0.718 -2.6367,-1.0772 -4.1672,-1.0772 -1.5301,0 -2.9194,0.3592 -4.1669,1.0772 -1.2478,0.718 -2.2309,1.7011 -2.9489,2.9489 -0.718,1.2475 -1.0771,2.6368 -1.0771,4.1669 0,1.5304 0.3591,2.9194 1.0771,4.1672 0.718,1.2478 1.7011,2.2306 2.9489,2.9486 1.2475,0.718 2.6368,1.0772 4.1669,1.0772 z m 30.7939,5.4031 c -2.4718,0 -4.7497,-0.6063 -6.8332,-1.8187 -2.0834,-1.2124 -3.7315,-2.8604 -4.9439,-4.9439 -1.2126,-2.0838 -1.8187,-4.3614 -1.8187,-6.8335 0,-2.4721 0.6061,-4.7497 1.8187,-6.8332 1.2124,-2.0837 2.8605,-3.7315 4.9439,-4.9442 2.0835,-1.2123 4.3614,-1.8187 6.8332,-1.8187 2.0719,0 4.0317,0.4473 5.8799,1.3422 1.8482,0.8946 3.3843,2.1186 4.6086,3.6726 l -4.2024,3.2842 c -0.7299,-0.9181 -1.6421,-1.6305 -2.7368,-2.1365 -1.0948,-0.5062 -2.2779,-0.7594 -3.5493,-0.7594 -1.5301,0 -2.9191,0.3592 -4.1669,1.0772 -1.2478,0.718 -2.2306,1.7011 -2.9489,2.9489 -0.718,1.2475 -1.0769,2.6368 -1.0769,4.1669 0,1.5304 0.3589,2.9194 1.0769,4.1672 0.7183,1.2478 1.7011,2.2306 2.9489,2.9486 1.2478,0.718 2.6368,1.0772 4.1669,1.0772 1.2478,0 2.4251,-0.2591 3.5317,-0.777 1.1064,-0.5179 2.0245,-1.2243 2.7544,-2.1189 l 4.2024,3.2842 c -1.2478,1.554 -2.7958,2.7783 -4.6437,3.6729 -1.8482,0.8946 -3.7965,1.3419 -5.8448,1.3419 z m 24.8261,0 c -2.0248,0 -3.867,-0.3886 -5.5267,-1.1653 -1.6597,-0.777 -2.9664,-1.8422 -3.92,-3.1961 -0.9533,-1.3538 -1.4301,-2.8545 -1.4301,-4.5025 v -17.9751 h 5.5089 v 16.9509 c 0,0.9182 0.2355,1.7598 0.7064,2.5251 0.4708,0.7651 1.1182,1.3655 1.9423,1.8009 0.824,0.4357 1.7305,0.6534 2.7192,0.6534 1.0123,0 1.9304,-0.2177 2.7545,-0.6534 0.824,-0.4354 1.4774,-1.0358 1.9598,-1.8009 0.4828,-0.7653 0.724,-1.6069 0.724,-2.5251 v -16.9509 h 5.4737 v 17.9751 c 0,1.648 -0.4768,3.1487 -1.4301,4.5025 -0.9536,1.3539 -2.26,2.4191 -3.92,3.1961 -1.6597,0.7767 -3.5138,1.1653 -5.5619,1.1653 z m 24.0843,0 c -2.1895,0 -4.1612,-0.5414 -5.915,-1.6245 -1.7541,-1.0829 -3.0549,-2.4837 -3.9025,-4.2024 l 4.485,-2.7898 c 0.4708,1.0831 1.1772,1.9423 2.1189,2.5778 0.9416,0.6358 2.0248,0.9536 3.2488,0.9536 1.1066,0 1.9836,-0.2413 2.6311,-0.724 0.6474,-0.4825 0.9711,-1.1478 0.9711,-1.9953 0,-0.6591 -0.212,-1.2183 -0.6358,-1.6773 -0.4238,-0.4592 -0.9476,-0.8359 -1.5715,-1.1302 -0.6239,-0.2942 -1.489,-0.6414 -2.5954,-1.0417 -1.5775,-0.5885 -2.8664,-1.1477 -3.867,-1.6775 -1.0007,-0.5295 -1.8598,-1.3006 -2.5779,-2.3131 -0.718,-1.0123 -1.0771,-2.3071 -1.0771,-3.8843 0,-1.6481 0.3883,-3.049 1.1653,-4.2027 0.777,-1.1534 1.7952,-2.0188 3.0546,-2.5954 1.2597,-0.5768 2.6076,-0.8654 4.0436,-0.8654 1.5775,0 3.0666,0.3356 4.4672,1.0066 1.4008,0.671 2.584,1.5715 3.5492,2.7014 l -3.6374,3.3903 c -1.3419,-1.5302 -2.8015,-2.2955 -4.379,-2.2955 -0.8475,0 -1.542,0.212 -2.0834,0.6358 -0.5417,0.4238 -0.8124,1.0477 -0.8124,1.8717 0,0.612 0.1941,1.1358 0.5828,1.5715 0.3883,0.4354 0.8827,0.7946 1.483,1.0769 0.6004,0.2826 1.4304,0.6123 2.4897,0.989 1.6246,0.5885 2.9489,1.1594 3.9731,1.7127 1.0238,0.553 1.9068,1.3771 2.6484,2.4718 0.7415,1.0948 1.1123,2.5251 1.1123,4.2908 0,1.5775 -0.4,2.9546 -1.2005,4.1318 -0.8005,1.1772 -1.8836,2.0775 -3.2491,2.7014 -1.3654,0.6239 -2.872,0.936 -4.5201,0.936 z"
       style="fill:#ffffff;fill-rule:evenodd"
       id="path2" />
    <path
       d="m 184.4926,226.3085 -0.4388,0.3146 c -0.2327,-0.4518 -0.5235,-0.7546 -0.8728,-0.9082 -0.3489,-0.1534 -0.7628,-0.2339 -1.2413,-0.2421 -0.3191,0 -0.6267,0.0445 -0.9226,0.1332 -0.2957,0.0888 -0.5684,0.2705 -0.8178,0.5449 -0.2492,0.2746 -0.3739,0.6216 -0.3739,1.0414 0,0.2101 0.04,0.3957 0.1196,0.557 0.0799,0.1616 0.1746,0.2926 0.2843,0.3935 0.1097,0.1009 0.2693,0.1958 0.4788,0.2846 0.2092,0.089 0.3988,0.1556 0.5683,0.1998 0.1696,0.0445 0.3975,0.0989 0.6832,0.1636 0.8708,0.2018 1.4661,0.3997 1.785,0.5933 0.6383,0.3795 0.9575,0.9929 0.9575,1.8405 0,0.4521 -0.0881,0.8416 -0.2642,1.1684 -0.1763,0.3272 -0.4076,0.5732 -0.6933,0.7387 -0.2858,0.1656 -0.5769,0.2846 -0.8725,0.3572 -0.2957,0.0729 -0.6067,0.1091 -0.9324,0.1091 -0.5918,0 -1.1534,-0.1553 -1.6854,-0.4663 -0.5318,-0.3106 -0.9241,-0.7687 -1.1767,-1.3742 l 0.4785,-0.2905 c 0.1996,0.4841 0.5304,0.8617 0.9924,1.1321 0.4621,0.2704 0.9258,0.4057 1.3912,0.4057 0.2458,0 0.4853,-0.0244 0.7178,-0.0729 0.2327,-0.0482 0.4688,-0.1329 0.7081,-0.2543 0.2395,-0.121 0.432,-0.3067 0.5785,-0.557 0.1463,-0.2503 0.2194,-0.5527 0.2194,-0.9082 0,-0.2018 -0.0266,-0.3852 -0.0799,-0.5508 -0.0533,-0.1655 -0.1412,-0.3089 -0.2642,-0.43 -0.123,-0.121 -0.2426,-0.2219 -0.3591,-0.3027 -0.1163,-0.0805 -0.2807,-0.1573 -0.4936,-0.2299 -0.2128,-0.0729 -0.3855,-0.1273 -0.5187,-0.1636 -0.1327,-0.0363 -0.3254,-0.0827 -0.578,-0.1391 -0.2792,-0.0647 -0.4938,-0.1171 -0.6434,-0.1577 -0.1494,-0.0402 -0.3439,-0.1029 -0.5834,-0.1876 -0.2393,-0.0848 -0.4238,-0.1755 -0.5533,-0.2724 -0.1299,-0.097 -0.2645,-0.218 -0.4043,-0.3631 -0.1394,-0.1455 -0.2406,-0.3189 -0.3038,-0.5208 -0.0632,-0.2018 -0.0947,-0.428 -0.0947,-0.678 -0.007,-0.428 0.0714,-0.8014 0.2344,-1.1203 0.1627,-0.3189 0.3821,-0.5629 0.6579,-0.7324 0.2761,-0.1695 0.5602,-0.2948 0.8527,-0.3756 0.2925,-0.0805 0.595,-0.1211 0.9076,-0.1211 0.5783,0 1.0687,0.097 1.4709,0.2906 0.4023,0.1939 0.7628,0.5774 1.082,1.1506 z m 4.4076,-0.7146 h -2.5228 v 4.3472 h 2.5228 c 0.3189,0 0.6035,-0.0808 0.8527,-0.2421 0.2494,-0.1616 0.4388,-0.3694 0.5683,-0.6236 0.1299,-0.2543 0.2245,-0.5349 0.2843,-0.8416 0.0599,-0.3067 0.0599,-0.6157 0,-0.9264 -0.0598,-0.311 -0.1544,-0.5933 -0.2843,-0.8476 -0.1295,-0.2542 -0.3189,-0.4623 -0.5683,-0.6236 -0.2492,-0.1616 -0.5338,-0.2423 -0.8527,-0.2423 z m 0,4.9405 h -2.5228 v 2.9304 h -0.5386 v -8.4764 h 3.0614 c 0.3657,0 0.6965,0.0788 0.9924,0.2361 0.2957,0.1576 0.5349,0.3674 0.718,0.6299 0.1829,0.2622 0.3223,0.559 0.4187,0.89 0.0964,0.3308 0.1446,0.6699 0.1446,1.0171 0,0.347 -0.0482,0.6863 -0.1446,1.0171 -0.0964,0.3311 -0.2358,0.6276 -0.4187,0.8901 -0.1831,0.2622 -0.4223,0.4722 -0.718,0.6295 -0.2959,0.1576 -0.6267,0.2362 -0.9924,0.2362 z m 9.5936,2.9304 h -0.5786 l -0.7676,-2.0826 h -4.1686 l -0.758,2.0826 h -0.5783 l 3.1315,-8.4764 h 0.5882 z m -5.3053,-2.6881 h 3.7496 l -1.8748,-5.1585 z m 9.3739,-5.1344 v 3.3784 h 4.0186 v 0.6176 h -4.0186 v 3.8387 h -0.5386 v -8.4886 h 4.697 v 0.6539 z m 8.7757,-0.7869 c 1.1169,0 1.9846,0.4258 2.6025,1.2773 0.6185,0.8518 0.9244,1.887 0.9176,3.1059 0,0.5653 -0.0762,1.1061 -0.2293,1.6229 -0.1528,0.5165 -0.3705,0.9808 -0.6531,1.3924 -0.2826,0.4118 -0.6517,0.7407 -1.1069,0.987 -0.4556,0.246 -0.9655,0.3693 -1.5308,0.3693 -0.5652,0 -1.0754,-0.1233 -1.5307,-0.3693 -0.4555,-0.2463 -0.8263,-0.5774 -1.112,-0.993 -0.286,-0.4158 -0.5037,-0.8819 -0.6531,-1.3986 -0.1497,-0.5168 -0.2245,-1.0616 -0.2245,-1.6347 0,-0.783 0.1264,-1.4976 0.379,-2.1433 0.2526,-0.6458 0.6517,-1.1767 1.1968,-1.5925 0.5451,-0.4156 1.1934,-0.6234 1.9445,-0.6234 z m 0,0.6052 c -0.9575,0 -1.6971,0.3614 -2.2189,1.084 -0.5219,0.7225 -0.7795,1.6166 -0.773,2.6821 0.007,1.0333 0.2727,1.9214 0.7979,2.664 0.5253,0.7427 1.2563,1.1141 2.194,1.1141 0.6381,0 1.19,-0.1857 1.6555,-0.5571 0.4654,-0.3713 0.8059,-0.8356 1.0221,-1.3926 0.216,-0.557 0.324,-1.1665 0.324,-1.8284 0,-1.0496 -0.2627,-1.9394 -0.788,-2.6702 -0.5252,-0.7305 -1.2631,-1.0959 -2.2136,-1.0959 z m 7.9079,4.7591 2.4633,3.2451 h -0.7081 l -2.4132,-3.2088 h -1.9049 v 3.2088 h -0.5382 v -8.4764 h 3.0713 c 0.718,0 1.2781,0.2605 1.6804,0.7812 0.4022,0.5207 0.6063,1.1401 0.6131,1.8587 0.006,0.7344 -0.1879,1.3501 -0.5834,1.8465 -0.3957,0.4966 -0.9555,0.7449 -1.6803,0.7449 z m -2.5629,-4.6258 v 4.0444 h 2.4733 c 0.585,0 1.0236,-0.1817 1.3161,-0.5448 0.2925,-0.3634 0.4422,-0.8558 0.449,-1.4774 0.006,-0.5409 -0.1395,-1.0131 -0.4388,-1.4168 -0.2993,-0.4036 -0.7214,-0.6054 -1.2665,-0.6054 z m 14.7592,7.8709 v -7.5319 l -2.6728,4.9649 h -0.1794 l -2.6927,-4.9649 v 7.5319 h -0.5383 v -8.4764 h 0.6381 l 2.6725,4.9405 2.6428,-4.9405 h 0.6582 v 8.4764 z m 2.5926,-7.8588 v 3.2936 h 4.0887 v 0.5933 h -4.0887 v 3.3423 h 4.4078 v 0.6296 h -4.9362 v -8.4764 h 4.8166 v 0.6176 z m 5.8141,-0.6176 h 0.229 l 4.6971,7.0112 v -7.0112 h 0.5286 v 8.4764 h -0.2095 l -4.7069,-6.999 v 6.999 h -0.5383 z"
       style="fill:#ffffff;fill-rule:evenodd"
       id="path4" />
    <path
       d="m 163.3847,212.4306 h 98.3835 v 2.5688 h -98.3835 z"
       style="fill:#ffffff;fill-rule:evenodd"
       id="path6" />
  </g>
</svg>
