<svg width="40" height="38" viewBox="0 0 40 38" fill="none" xmlns="http://www.w3.org/2000/svg">
<path d="M37.5 10.2254H29.59C30.1575 9.83785 30.645 9.45285 30.985 9.10785C33 7.08035 33 3.78035 30.985 1.75285C29.0275 -0.217148 25.6125 -0.219648 23.6525 1.75285C22.57 2.84035 19.6925 7.26785 20.09 10.2254H19.91C20.305 7.26785 17.43 2.84035 16.3475 1.75285C14.3875 -0.219648 10.9725 -0.217148 9.015 1.75285C7 3.78035 7 7.08035 9.0125 9.10785C9.355 9.45285 9.8425 9.83785 10.41 10.2254H2.5C1.1225 10.2254 0 11.3479 0 12.7254V18.9754C0 19.6654 0.56 20.2254 1.25 20.2254H2.5V35.2254C2.5 36.6029 3.6225 37.7254 5 37.7254H35C36.3775 37.7254 37.5 36.6029 37.5 35.2254V20.2254H38.75C39.44 20.2254 40 19.6654 40 18.9754V12.7254C40 11.3479 38.8775 10.2254 37.5 10.2254ZM10.7875 3.51535C11.295 3.00535 11.9675 2.72535 12.6825 2.72535C13.395 2.72535 14.0675 3.00535 14.575 3.51535C16.26 5.21035 17.935 9.54035 17.3525 10.1429C17.3525 10.1429 17.2475 10.2254 16.89 10.2254C15.1625 10.2254 11.865 8.43035 10.7875 7.34535C9.74 6.29035 9.74 4.57035 10.7875 3.51535ZM18.75 35.2254H5V20.2254H18.75V35.2254ZM18.75 17.7254H2.5V12.7254H16.89H18.75V17.7254ZM25.425 3.51535C26.44 2.49785 28.2 2.50035 29.2125 3.51535C30.26 4.57035 30.26 6.29035 29.2125 7.34535C28.135 8.43035 24.8375 10.2254 23.11 10.2254C22.7525 10.2254 22.6475 10.1454 22.645 10.1429C22.065 9.54035 23.74 5.21035 25.425 3.51535ZM35 35.2254H21.25V20.2254H35V35.2254ZM37.5 17.7254H21.25V12.7254H23.11H37.5V17.7254Z" fill="#560D20"/>
</svg>
