<svg width="60" height="40" viewBox="0 0 60 40" fill="none" xmlns="http://www.w3.org/2000/svg">
<path d="M60 18C60 14.967 57.533 12.5 54.5 12.5C53.979 12.5 53.478 12.577 53 12.713V10.207C53 4.854 48.646 0.5 43.293 0.5H16.707C11.354 0.5 7 4.854 7 10.207V12.713C6.522 12.577 6.021 12.5 5.5 12.5C2.467 12.5 0 14.967 0 18C0 19.804 0.903 21.47 2.355 22.487C2.129 23.118 2 23.793 2 24.5C2 26.11 2.641 27.572 3.677 28.65C2.704 28.993 2 29.911 2 31C2 32.378 3.122 33.5 4.5 33.5H6V36.5H8V37.5C7.448 37.5 7 37.948 7 38.5C7 39.052 7.448 39.5 8 39.5H10C10.552 39.5 11 39.052 11 38.5C11 37.948 10.552 37.5 10 37.5V36.5H12V33.5H48V36.5H50V37.5C49.448 37.5 49 37.948 49 38.5C49 39.052 49.448 39.5 50 39.5H52C52.552 39.5 53 39.052 53 38.5C53 37.948 52.552 37.5 52 37.5V36.5H54V33.5H55.5C56.878 33.5 58 32.378 58 31C58 29.911 57.296 28.993 56.323 28.65C57.359 27.572 58 26.11 58 24.5C58 23.793 57.871 23.118 57.645 22.487C59.097 21.47 60 19.804 60 18ZM9 13.759V10.207C9 5.957 12.458 2.5 16.707 2.5H43.293C47.543 2.5 51 5.958 51 10.207V13.759C50.963 13.79 50.93 13.825 50.894 13.857C50.791 13.947 50.688 14.038 50.592 14.135C50.528 14.2 50.47 14.268 50.409 14.336C50.344 14.409 50.278 14.481 50.216 14.557C50.157 14.63 50.102 14.707 50.047 14.783C49.991 14.861 49.935 14.939 49.883 15.02C49.834 15.097 49.787 15.174 49.741 15.253C49.69 15.341 49.642 15.43 49.596 15.521C49.557 15.597 49.52 15.674 49.484 15.752C49.439 15.852 49.399 15.954 49.359 16.057C49.331 16.131 49.302 16.204 49.278 16.279C49.24 16.394 49.209 16.511 49.179 16.628C49.161 16.696 49.141 16.763 49.126 16.832C49.097 16.964 49.077 17.1 49.058 17.235C49.05 17.293 49.038 17.349 49.032 17.407C49.012 17.604 49 17.8 49 18C49 18.167 49.008 18.333 49.025 18.5H10.975C10.992 18.333 11 18.167 11 18C11 17.8 10.988 17.604 10.967 17.41C10.961 17.352 10.949 17.295 10.941 17.238C10.922 17.102 10.902 16.967 10.873 16.835C10.858 16.766 10.838 16.699 10.82 16.631C10.79 16.513 10.758 16.396 10.721 16.282C10.696 16.207 10.667 16.134 10.64 16.06C10.601 15.957 10.56 15.855 10.515 15.755C10.48 15.677 10.442 15.6 10.403 15.524C10.357 15.433 10.309 15.344 10.258 15.256C10.212 15.177 10.166 15.099 10.116 15.023C10.064 14.942 10.008 14.864 9.952 14.786C9.897 14.71 9.842 14.633 9.783 14.56C9.722 14.484 9.656 14.412 9.59 14.339C9.53 14.272 9.471 14.203 9.407 14.138C9.311 14.041 9.208 13.95 9.105 13.86C9.07 13.825 9.037 13.79 9 13.759ZM51.692 20.5H52C52.236 20.5 52.463 20.53 52.688 20.57C52.769 20.585 52.85 20.601 52.929 20.62C53.063 20.652 53.193 20.697 53.321 20.742C53.539 20.821 53.75 20.914 53.951 21.03C53.973 21.043 53.997 21.054 54.019 21.067C54.615 21.426 55.123 21.942 55.478 22.579L55.69 22.959C55.889 23.433 56 23.954 56 24.5C56 26.706 54.206 28.5 52 28.5H8C5.794 28.5 4 26.706 4 24.5C4 23.954 4.111 23.433 4.31 22.959L4.522 22.579C4.877 21.942 5.385 21.426 5.981 21.067C6.003 21.054 6.026 21.043 6.049 21.03C6.25 20.914 6.462 20.821 6.679 20.742C6.808 20.697 6.937 20.652 7.071 20.62C7.151 20.6 7.231 20.584 7.312 20.57C7.537 20.53 7.764 20.5 8 20.5H8.308H10.431H49.57H51.692ZM2 18C2 16.07 3.57 14.5 5.5 14.5C6.221 14.5 6.891 14.72 7.449 15.095C7.668 15.243 7.862 15.417 8.039 15.605C8.096 15.665 8.144 15.732 8.196 15.796C8.31 15.935 8.414 16.081 8.505 16.235C8.551 16.313 8.594 16.391 8.634 16.473C8.714 16.637 8.778 16.809 8.832 16.984C8.855 17.06 8.884 17.133 8.902 17.21C8.962 17.466 9 17.73 9 18C9 18.164 8.98 18.331 8.952 18.5H8C7.777 18.5 7.558 18.514 7.341 18.538C7.312 18.541 7.284 18.547 7.256 18.551C7.059 18.576 6.865 18.609 6.674 18.652C6.666 18.654 6.658 18.656 6.65 18.658C5.323 18.965 4.163 19.709 3.333 20.735C2.506 20.081 2 19.077 2 18ZM10 34.5H8V33.5H10V34.5ZM52 34.5H50V33.5H52V34.5ZM55.5 31.5H54H48H12H6H4.5C4.224 31.5 4 31.276 4 31C4 30.724 4.224 30.5 4.5 30.5H8H52H55.5C55.776 30.5 56 30.724 56 31C56 31.276 55.776 31.5 55.5 31.5ZM56.666 20.736C55.837 19.71 54.677 18.966 53.349 18.659C53.341 18.657 53.333 18.655 53.325 18.653C53.134 18.61 52.94 18.576 52.743 18.552C52.714 18.548 52.686 18.542 52.658 18.539C52.442 18.514 52.223 18.5 52 18.5H51.048C51.02 18.331 51 18.164 51 18C51 17.73 51.038 17.466 51.098 17.209C51.116 17.132 51.145 17.059 51.168 16.984C51.222 16.808 51.286 16.637 51.366 16.472C51.406 16.391 51.449 16.312 51.495 16.235C51.586 16.081 51.69 15.935 51.804 15.796C51.856 15.732 51.904 15.666 51.961 15.606C52.138 15.418 52.332 15.244 52.551 15.096C53.109 14.72 53.779 14.5 54.5 14.5C56.43 14.5 58 16.07 58 18C58 19.077 57.494 20.081 56.666 20.736Z" fill="#560D20"/>
<path d="M14.293 12.2068C14.488 12.4018 14.744 12.4998 15 12.4998C15.256 12.4998 15.512 12.4018 15.707 12.2068L17.5 10.4138L19.293 12.2068C19.488 12.4018 19.744 12.4998 20 12.4998C20.256 12.4998 20.512 12.4018 20.707 12.2068C21.098 11.8158 21.098 11.1838 20.707 10.7928L19.414 9.49976L20.707 8.20676C21.098 7.81576 21.098 7.18376 20.707 6.79276C20.316 6.40176 19.684 6.40176 19.293 6.79276L17.5 8.58576L15.707 6.79276C15.316 6.40176 14.684 6.40176 14.293 6.79276C13.902 7.18376 13.902 7.81576 14.293 8.20676L15.586 9.49976L14.293 10.7928C13.902 11.1838 13.902 11.8158 14.293 12.2068Z" fill="#560D20"/>
<path d="M27.293 15.2068C27.488 15.4018 27.744 15.4998 28 15.4998C28.256 15.4998 28.512 15.4018 28.707 15.2068L30.5 13.4138L32.293 15.2068C32.488 15.4018 32.744 15.4998 33 15.4998C33.256 15.4998 33.512 15.4018 33.707 15.2068C34.098 14.8158 34.098 14.1838 33.707 13.7928L32.414 12.4998L33.707 11.2068C34.098 10.8158 34.098 10.1838 33.707 9.79276C33.316 9.40176 32.684 9.40176 32.293 9.79276L30.5 11.5858L28.707 9.79276C28.316 9.40176 27.684 9.40176 27.293 9.79276C26.902 10.1838 26.902 10.8158 27.293 11.2068L28.586 12.4998L27.293 13.7928C26.902 14.1838 26.902 14.8158 27.293 15.2068Z" fill="#560D20"/>
<path d="M40.293 12.2068C40.488 12.4018 40.744 12.4998 41 12.4998C41.256 12.4998 41.512 12.4018 41.707 12.2068L43.5 10.4138L45.293 12.2068C45.488 12.4018 45.744 12.4998 46 12.4998C46.256 12.4998 46.512 12.4018 46.707 12.2068C47.098 11.8158 47.098 11.1838 46.707 10.7928L45.414 9.49976L46.707 8.20676C47.098 7.81576 47.098 7.18376 46.707 6.79276C46.316 6.40176 45.684 6.40176 45.293 6.79276L43.5 8.58576L41.707 6.79276C41.316 6.40176 40.684 6.40176 40.293 6.79276C39.902 7.18376 39.902 7.81576 40.293 8.20676L41.586 9.49976L40.293 10.7928C39.902 11.1838 39.902 11.8158 40.293 12.2068Z" fill="#560D20"/>
</svg>
