<svg width="36" height="32" viewBox="0 0 36 32" fill="none" xmlns="http://www.w3.org/2000/svg">
<path d="M27.6251 16C31.9743 16 35.5001 19.5258 35.5001 23.875C35.5001 28.2242 31.9743 31.75 27.6251 31.75C23.8785 31.75 20.743 29.1337 19.946 25.6284H16.0541C15.2571 29.1337 12.1216 31.75 8.37505 31.75C4.02581 31.75 0.500052 28.2242 0.500052 23.875C0.500052 19.5258 4.02581 16 8.37505 16C12.4287 16 15.767 19.0628 16.202 23.0005H19.7981C20.2331 19.0628 23.5714 16 27.6251 16ZM8.37505 18.625C5.47556 18.625 3.12505 20.9755 3.12505 23.875C3.12505 26.7745 5.47556 29.125 8.37505 29.125C11.2745 29.125 13.6251 26.7745 13.6251 23.875C13.6251 20.9755 11.2745 18.625 8.37505 18.625ZM27.6251 18.625C24.7256 18.625 22.3751 20.9755 22.3751 23.875C22.3751 26.7745 24.7256 29.125 27.6251 29.125C30.5245 29.125 32.8751 26.7745 32.8751 23.875C32.8751 20.9755 30.5245 18.625 27.6251 18.625ZM18.0001 11.1875C23.9314 11.1875 29.4277 11.7817 34.4882 12.9724C35.1938 13.1384 35.6312 13.845 35.4652 14.5506C35.2991 15.2562 34.5925 15.6936 33.8869 15.5276C29.0307 14.385 23.7354 13.8125 18.0001 13.8125C12.2647 13.8125 6.96939 14.385 2.11317 15.5276C1.40756 15.6936 0.700966 15.2562 0.534942 14.5506C0.368917 13.845 0.806333 13.1384 1.51194 12.9724C6.57238 11.7817 12.0687 11.1875 18.0001 11.1875ZM24.4755 0.6875C26.2655 0.6875 27.8974 1.67964 28.7272 3.24528L28.8732 3.54546L31.4494 9.34194C31.7438 10.0043 31.4455 10.78 30.7831 11.0744C30.1759 11.3442 29.4736 11.1161 29.134 10.5659L29.0507 10.4081L26.4745 4.61157C26.1553 3.89342 25.4788 3.40739 24.709 3.32495L24.4755 3.3125H11.5246C10.7387 3.3125 10.0198 3.73325 9.63185 4.40326L9.52565 4.61157L6.94943 10.4081C6.65503 11.0705 5.87939 11.3688 5.21699 11.0744C4.6098 10.8045 4.30852 10.1303 4.48929 9.50956L4.55067 9.34194L7.12689 3.54546C7.85387 1.90976 9.42329 0.821406 11.191 0.699024L11.5246 0.6875H24.4755Z" fill="#560D20"/>
</svg>
