<svg width="33" height="41" viewBox="0 0 33 41" fill="none" xmlns="http://www.w3.org/2000/svg">
<path d="M5.69722 15.329C4.40102 13.0024 3.59671 10.4875 3.37244 8.1153H1.3328C0.596733 8.1153 -1.14441e-05 7.51856 -1.14441e-05 6.78249V1.33281C-1.14441e-05 0.596744 0.596733 0 1.3328 0H30.8076C31.5437 0 32.1404 0.596744 32.1404 1.33281V6.78249C32.1404 7.51856 31.5437 8.1153 30.8076 8.1153H28.7679C28.5436 10.4874 27.7392 13.0023 26.443 15.329C25.2623 17.4483 23.7637 19.2263 22.1068 20.5C23.7637 21.7738 25.2623 23.5518 26.443 25.6711C27.7392 27.9977 28.5435 30.5126 28.7679 32.8847H30.8076C31.5437 32.8847 32.1404 33.4814 32.1404 34.2175V39.6672C32.1404 40.4033 31.5437 41 30.8076 41H1.3328C0.596733 41 -1.14441e-05 40.4033 -1.14441e-05 39.6672V34.2175C-1.14441e-05 33.4814 0.596733 32.8847 1.3328 32.8847H3.37244C3.59671 30.5126 4.40111 27.9977 5.69722 25.6711C6.87791 23.5518 8.37652 21.7738 10.0335 20.5C8.37652 19.2262 6.878 17.4482 5.69722 15.329ZM29.4748 5.44968V2.66562H2.66561V5.44968H29.4748ZM2.66561 35.5502V38.3343H29.4748V35.5502C28.0631 35.5502 4.1931 35.5502 2.66561 35.5502ZM13.1124 21.6905C9.59178 23.4623 6.56816 28.368 6.04988 32.8846H14.9495C14.816 32.677 14.7375 32.4304 14.7375 32.1652V30.1215C14.7375 29.3854 15.3342 28.7887 16.0703 28.7887C16.8064 28.7887 17.4031 29.3854 17.4031 30.1215V32.1652C17.4031 32.4304 17.3247 32.677 17.1911 32.8846H26.0905C25.5723 28.368 22.5487 23.4623 19.028 21.6905C18.5781 21.4641 18.2943 21.0036 18.2943 20.5C18.2943 19.9963 18.5781 19.5358 19.028 19.3094C22.5487 17.5377 25.5723 12.6319 26.0905 8.1153H6.04988C6.56816 12.6319 9.59178 17.5377 13.1124 19.3094C13.5623 19.5358 13.8461 19.9963 13.8461 20.5C13.8462 21.0036 13.5622 21.4641 13.1124 21.6905Z" fill="#560D20"/>
<path d="M11.6818 15.8336C10.6655 14.4278 10.0588 12.6566 10.0588 11.0955C10.0588 10.3594 10.6555 9.7627 11.3916 9.7627H20.7487C21.4848 9.7627 22.0815 10.3594 22.0815 11.0955C22.0815 12.6566 21.4748 14.4278 20.4585 15.8336C19.5919 17.0323 18.5372 17.8414 17.403 18.1979V25.4054C17.403 26.1414 16.8063 26.7382 16.0702 26.7382C15.3341 26.7382 14.7374 26.1414 14.7374 25.4054V18.1979C13.6032 17.8414 12.5484 17.0323 11.6818 15.8336ZM16.0702 15.7392C17.4001 15.7392 18.707 14.0956 19.2049 12.4283H12.9354C13.4335 14.0956 14.7403 15.7392 16.0702 15.7392Z" fill="#560D20"/>
</svg>
