<svg width="40" height="38" viewBox="0 0 40 38" fill="none" xmlns="http://www.w3.org/2000/svg">
<path d="M23.8136 24.3234H21.356V21.8657C21.356 21.1169 20.7488 20.5098 20 20.5098C19.2512 20.5098 18.644 21.1169 18.644 21.8657V24.3234H16.1864C15.4376 24.3234 14.8304 24.9305 14.8304 25.6793C14.8304 26.4281 15.4376 27.0353 16.1864 27.0353H18.644V29.4929C18.644 30.2418 19.2512 30.8489 20 30.8489C20.7488 30.8489 21.356 30.2418 21.356 29.4929V27.0353H23.8136C24.5624 27.0353 25.1696 26.4281 25.1696 25.6793C25.1696 24.9305 24.5624 24.3234 23.8136 24.3234Z" fill="#560D20"/>
<path d="M38.644 14.1481H37.6695V1.521C37.6695 0.772177 37.0624 0.165039 36.3135 0.165039H3.68646C2.93764 0.165039 2.33051 0.772177 2.33051 1.521V9.48706H1.35596C0.607138 9.48706 0 10.0942 0 10.843V31.9706C0 35.204 2.63057 37.8345 5.86397 37.8345H34.136C37.3694 37.8345 40 35.204 40 31.9706V15.504C40 14.7552 39.3929 14.1481 38.644 14.1481ZM5.04242 2.87696H34.9576V14.1482H16.1771L14.2213 10.2368C13.9915 9.77729 13.5222 9.48719 13.0085 9.48719H5.04242V2.87696ZM37.2881 31.9706C37.2881 33.7086 35.8741 35.1227 34.1359 35.1227H5.86397C4.12593 35.1227 2.71178 33.7087 2.71178 31.9706V12.199H12.1704L14.1262 16.1104C14.356 16.5699 14.8253 16.86 15.339 16.86H37.2881V31.9706Z" fill="#560D20"/>
<path d="M20 7.13109H31.6525C32.1767 7.13109 32.6016 6.70618 32.6016 6.182C32.6016 5.65783 32.1767 5.23291 31.6525 5.23291H20C19.4758 5.23291 19.0509 5.65783 19.0509 6.182C19.0509 6.70618 19.4758 7.13109 20 7.13109Z" fill="#560D20"/>
<path d="M16.2881 6.182C16.2881 5.65783 15.8632 5.23291 15.339 5.23291H10.678C10.1538 5.23291 9.72888 5.65783 9.72888 6.182C9.72888 6.70618 10.1538 7.13109 10.678 7.13109H15.339C15.8632 7.13109 16.2881 6.70618 16.2881 6.182Z" fill="#560D20"/>
<path d="M20 11.7922H31.6525C32.1767 11.7922 32.6016 11.3673 32.6016 10.8431C32.6016 10.319 32.1767 9.89404 31.6525 9.89404H20C19.4758 9.89404 19.0509 10.319 19.0509 10.8431C19.0509 11.3673 19.4758 11.7922 20 11.7922Z" fill="#560D20"/>
</svg>
