<svg width="52" height="48" viewBox="0 0 52 48" fill="none" xmlns="http://www.w3.org/2000/svg">
<path d="M51.487 16.7259L44.5895 13.4739C44.6442 13.0344 44.5962 12.5852 44.442 12.1562C44.1837 11.437 43.6607 10.8614 42.9694 10.5355L21.9184 0.610588C20.752 0.060523 19.4412 -0.00218494 18.2275 0.43379C17.014 0.869646 16.0427 1.75197 15.4928 2.91826C15.4928 2.91838 15.4927 2.9185 15.4925 2.91874L13.8149 6.477C13.7138 6.69147 13.7021 6.93741 13.7823 7.16058C13.8625 7.38376 14.028 7.56592 14.2424 7.66714L27.6668 13.9963C27.79 14.0544 27.9197 14.0819 28.0475 14.0819C28.3828 14.0819 28.7044 13.8924 28.8568 13.5688L30.1532 10.8193L40.5291 15.7113C40.9168 15.894 41.3312 15.9861 41.7474 15.9861C42.0733 15.9861 42.4005 15.9296 42.7165 15.8162C43.1452 15.6622 43.5212 15.4124 43.8253 15.0908L50.7244 18.3435C50.8475 18.4015 50.9772 18.4291 51.105 18.4291C51.4404 18.4291 51.7619 18.2394 51.9144 17.9159C52.1249 17.4694 51.9337 16.9365 51.487 16.7259ZM27.6208 11.9974L15.8138 6.43074L16.7288 4.4899L28.5358 10.0566L27.6208 11.9974ZM42.1119 14.1331C41.8425 14.2299 41.5512 14.2159 41.292 14.0937C41.2918 14.0937 41.2918 14.0937 41.2918 14.0937L24.7098 6.27588L17.6115 2.92923C17.9415 2.56622 18.3573 2.28725 18.8319 2.11677C19.5957 1.84233 20.4213 1.88179 21.1558 2.22812L42.2068 12.153C42.466 12.2752 42.662 12.491 42.7589 12.7608C42.8558 13.0306 42.8418 13.3218 42.7196 13.581C42.5976 13.8402 42.3817 14.0363 42.1119 14.1331Z" fill="#560D20"/>
<path d="M5.96057 29.1784C5.51422 28.9678 4.98109 29.1589 4.77055 29.6058L0.805169 38.0163C0.594632 38.463 0.785975 38.9957 1.23268 39.2063C1.35583 39.2643 1.48554 39.2919 1.61334 39.2919C1.94869 39.2919 2.27022 39.1023 2.4227 38.7788L6.38808 30.3683C6.59862 29.9217 6.40727 29.3889 5.96057 29.1784Z" fill="#560D20"/>
<path d="M6.57064 27.8844C6.69379 27.9425 6.8235 27.97 6.9513 27.97C7.28665 27.97 7.60818 27.7805 7.76066 27.4569L12.8698 16.6204C13.0803 16.1736 12.889 15.6409 12.4423 15.4303C11.9958 15.2198 11.4628 15.4109 11.2523 15.8577L6.14313 26.6943C5.93271 27.1411 6.12394 27.6739 6.57064 27.8844Z" fill="#560D20"/>
<path d="M12.9762 14.2984C13.0994 14.3565 13.2291 14.384 13.3569 14.384C13.6922 14.384 14.0138 14.1944 14.1662 13.8709L15.7677 10.4743C15.9782 10.0276 15.7869 9.49485 15.3402 9.28431C14.8939 9.07378 14.3607 9.265 14.1501 9.71182L12.5487 13.1084C12.3382 13.555 12.5295 14.0878 12.9762 14.2984Z" fill="#560D20"/>
<path d="M13.0812 23.046C12.6349 22.8355 12.1017 23.0267 11.8912 23.4734L4.2655 39.6475C4.05496 40.0942 4.2463 40.627 4.69301 40.8376C4.81616 40.8956 4.94586 40.9232 5.07366 40.9232C5.40902 40.9232 5.73055 40.7336 5.88303 40.41L13.5087 24.2359C13.7191 23.7894 13.5279 23.2566 13.0812 23.046Z" fill="#560D20"/>
<path d="M18.8003 10.9157C18.354 10.7051 17.8208 10.8964 17.6103 11.3431L13.34 20.4006C13.1294 20.8473 13.3208 21.3801 13.7675 21.5906C13.8906 21.6487 14.0203 21.6762 14.1481 21.6762C14.4835 21.6762 14.805 21.4867 14.9575 21.1631L19.2278 12.1056C19.4384 11.659 19.247 11.1263 18.8003 10.9157Z" fill="#560D20"/>
<path d="M9.98318 38.5871C9.53684 38.3765 9.0037 38.5676 8.79316 39.0145L7.72558 41.2789C7.51504 41.7256 7.70638 42.2583 8.15309 42.4689C8.27624 42.5269 8.40595 42.5545 8.53375 42.5545C8.8691 42.5545 9.19063 42.3649 9.34311 42.0414L10.4107 39.777C10.6212 39.3304 10.4299 38.7976 9.98318 38.5871Z" fill="#560D20"/>
<path d="M11.6308 37.1894L19.8665 19.7214C20.0771 19.2747 19.8857 18.7419 19.439 18.5314C18.9927 18.3209 18.4596 18.512 18.249 18.9588L10.0132 36.4269C9.80264 36.8736 9.99398 37.4064 10.4407 37.6169C10.5638 37.675 10.6935 37.7025 10.8213 37.7025C11.1567 37.7025 11.4782 37.5129 11.6308 37.1894Z" fill="#560D20"/>
<path d="M19.8203 17.7228C19.9435 17.7809 20.0732 17.8084 20.201 17.8084C20.5363 17.8084 20.8579 17.6189 21.0103 17.2953L22.688 13.7371C22.8985 13.2903 22.7072 12.7576 22.2605 12.547C21.8141 12.3365 21.281 12.5276 21.0704 12.9744L19.3928 16.5327C19.1823 16.9795 19.3736 17.5123 19.8203 17.7228Z" fill="#560D20"/>
<path d="M17.7138 31.1613C17.2676 30.9508 16.7344 31.1419 16.5238 31.5887L11.1859 42.9106C10.9754 43.3573 11.1667 43.89 11.6134 44.1006C11.7366 44.1586 11.8663 44.1862 11.9941 44.1862C12.3294 44.1862 12.651 43.9965 12.8034 43.6731L18.1414 32.3512C18.3519 31.9046 18.1606 31.3718 17.7138 31.1613Z" fill="#560D20"/>
<path d="M25.7208 14.1784C25.2744 13.9678 24.7413 14.159 24.5308 14.6058L17.9726 28.5156C17.7621 28.9623 17.9535 29.4951 18.4002 29.7056C18.5233 29.7637 18.653 29.7912 18.7808 29.7912C19.1162 29.7912 19.4377 29.6016 19.5902 29.2781L26.1483 15.3683C26.3588 14.9217 26.1675 14.3889 25.7208 14.1784Z" fill="#560D20"/>
<path d="M4.00389 12.5405C6.21166 12.5405 8.00778 10.7444 8.00778 8.5366C8.00778 6.32883 6.21166 4.53271 4.00389 4.53271C1.79612 4.53271 0 6.32883 0 8.5366C0 10.7444 1.79612 12.5405 4.00389 12.5405ZM4.00389 6.32096C5.22562 6.32096 6.21953 7.31487 6.21953 8.5366C6.21953 9.75833 5.22562 10.7522 4.00389 10.7522C2.78216 10.7522 1.78825 9.75821 1.78825 8.5366C1.78825 7.31487 2.78216 6.32096 4.00389 6.32096Z" fill="#560D20"/>
<path d="M21.4393 40.7002C19.4673 40.7002 17.863 42.3046 17.863 44.2766C17.863 46.2485 19.4673 47.8529 21.4393 47.8529C23.4114 47.8529 25.0157 46.2485 25.0157 44.2766C25.0157 42.3046 23.4114 40.7002 21.4393 40.7002ZM21.4393 46.0647C20.4534 46.0647 19.6513 45.2625 19.6513 44.2766C19.6513 43.2907 20.4535 42.4884 21.4393 42.4884C22.4253 42.4884 23.2274 43.2907 23.2274 44.2766C23.2274 45.2625 22.4252 46.0647 21.4393 46.0647Z" fill="#560D20"/>
<path d="M41.1815 27.4683C39.801 27.4683 38.678 28.5913 38.678 29.9717C38.678 30.174 38.7047 30.3696 38.7503 30.5581C38.552 30.5257 38.3489 30.508 38.1417 30.508C36.0711 30.508 34.3865 32.1926 34.3865 34.2632C34.3865 36.3338 36.0711 38.0185 38.1417 38.0185C40.2122 38.0185 41.8968 36.3339 41.8968 34.2632C41.8968 33.611 41.7294 32.9973 41.4356 32.4622C42.6972 32.3344 43.685 31.2663 43.685 29.9717C43.685 28.5913 42.5619 27.4683 41.1815 27.4683ZM38.1417 36.2302C37.057 36.2302 36.1747 35.3479 36.1747 34.2632C36.1747 33.1786 37.057 32.2963 38.1417 32.2963C39.2262 32.2963 40.1085 33.1786 40.1085 34.2632C40.1085 35.3479 39.2261 36.2302 38.1417 36.2302ZM41.1815 30.687C40.7871 30.687 40.4663 30.3662 40.4663 29.9717C40.4663 29.5772 40.7871 29.2565 41.1815 29.2565C41.5759 29.2565 41.8968 29.5773 41.8968 29.9717C41.8968 30.3661 41.5758 30.687 41.1815 30.687Z" fill="#560D20"/>
</svg>
